<svg id="visual" viewBox="0 0 1000 600" width="1000" height="600" xmlns="http://www.w3.org/2000/svg" xmlns:xlink="http://www.w3.org/1999/xlink" version="1.1"><path d="M0 511L167 530L333 490L500 532L667 500L833 538L1000 503L1000 601L833 601L667 601L500 601L333 601L167 601L0 601Z" fill="#19b8e1"></path><path d="M0 540L167 519L333 530L500 527L667 539L833 510L1000 525L1000 601L833 601L667 601L500 601L333 601L167 601L0 601Z" fill="#007eb4"></path><path d="M0 541L167 571L333 542L500 575L667 534L833 562L1000 545L1000 601L833 601L667 601L500 601L333 601L167 601L0 601Z" fill="#0c477f"></path><path d="M0 570L167 561L333 574L500 585L667 573L833 570L1000 574L1000 601L833 601L667 601L500 601L333 601L167 601L0 601Z" fill="#121446"></path></svg>