<svg id="visual" viewBox="0 0 1000 600" width="1000" height="600" xmlns="http://www.w3.org/2000/svg" xmlns:xlink="http://www.w3.org/1999/xlink" version="1.1"><path d="M0 540L167 494L333 536L500 497L667 539L833 496L1000 510L1000 601L833 601L667 601L500 601L333 601L167 601L0 601Z" fill="#fb736b"></path><path d="M0 511L167 551L333 510L500 535L667 530L833 544L1000 543L1000 601L833 601L667 601L500 601L333 601L167 601L0 601Z" fill="#d94c7b"></path><path d="M0 561L167 558L333 563L500 554L667 554L833 540L1000 560L1000 601L833 601L667 601L500 601L333 601L167 601L0 601Z" fill="#a43588"></path><path d="M0 592L167 563L333 589L500 583L667 558L833 581L1000 573L1000 601L833 601L667 601L500 601L333 601L167 601L0 601Z" fill="#5b308c"></path></svg>