<svg id="visual" viewBox="0 0 1000 600" width="1000" height="600" xmlns="http://www.w3.org/2000/svg" xmlns:xlink="http://www.w3.org/1999/xlink" version="1.1"><path d="M0 518L167 533L333 487L500 511L667 537L833 499L1000 513L1000 601L833 601L667 601L500 601L333 601L167 601L0 601Z" fill="#fb736b"></path><path d="M0 554L167 526L333 545L500 518L667 559L833 526L1000 535L1000 601L833 601L667 601L500 601L333 601L167 601L0 601Z" fill="#d94c7b"></path><path d="M0 543L167 537L333 574L500 565L667 553L833 536L1000 571L1000 601L833 601L667 601L500 601L333 601L167 601L0 601Z" fill="#a43588"></path><path d="M0 563L167 593L333 585L500 581L667 574L833 592L1000 573L1000 601L833 601L667 601L500 601L333 601L167 601L0 601Z" fill="#5b308c"></path></svg>