<svg id="visual" viewBox="0 0 960 540" width="960" height="540" xmlns="http://www.w3.org/2000/svg" xmlns:xlink="http://www.w3.org/1999/xlink" version="1.1"><rect x="0" y="0" width="960" height="540" fill="#f7eefc"></rect><path d="M0 476L137 444L274 480L411 454L549 442L686 493L823 442L960 452L960 541L823 541L686 541L549 541L411 541L274 541L137 541L0 541Z" fill="#fb736b"></path><path d="M0 494L137 467L274 493L411 502L549 495L686 472L823 493L960 483L960 541L823 541L686 541L549 541L411 541L274 541L137 541L0 541Z" fill="#d94c7b"></path><path d="M0 511L137 523L274 500L411 508L549 506L686 509L823 500L960 517L960 541L823 541L686 541L549 541L411 541L274 541L137 541L0 541Z" fill="#a43588"></path><path d="M0 524L137 522L274 534L411 504L549 533L686 508L823 509L960 507L960 541L823 541L686 541L549 541L411 541L274 541L137 541L0 541Z" fill="#5b308c"></path></svg>