<svg id="visual" viewBox="0 0 960 540" width="960" height="540" xmlns="http://www.w3.org/2000/svg" xmlns:xlink="http://www.w3.org/1999/xlink" version="1.1"><rect x="0" y="0" width="960" height="540" fill="#f7eefc"></rect><path d="M0 446L137 483L274 494L411 495L549 461L686 492L823 440L960 488L960 541L823 541L686 541L549 541L411 541L274 541L137 541L0 541Z" fill="#fb736b"></path><path d="M0 466L137 501L274 460L411 489L549 457L686 481L823 501L960 485L960 541L823 541L686 541L549 541L411 541L274 541L137 541L0 541Z" fill="#d94c7b"></path><path d="M0 513L137 497L274 489L411 479L549 498L686 503L823 485L960 514L960 541L823 541L686 541L549 541L411 541L274 541L137 541L0 541Z" fill="#a43588"></path><path d="M0 501L137 505L274 530L411 525L549 535L686 499L823 516L960 507L960 541L823 541L686 541L549 541L411 541L274 541L137 541L0 541Z" fill="#5b308c"></path></svg>